<?xml version="1.0" encoding="utf-8"?>
<!-- Generator: Adobe Illustrator 23.0.6, SVG Export Plug-In . SVG Version: 6.00 Build 0)  -->
<svg version="1.1" id="Capa_20" xmlns="http://www.w3.org/2000/svg" xmlns:xlink="http://www.w3.org/1999/xlink" x="0px" y="0px"
	 viewBox="0 0 700 163.6" style="enable-background:new 0 0 700 163.6;" xml:space="preserve">
<style type="text/css">
	.st0{fill:#D21217;}
	.st1{fill:#009CA6;}
</style>
<g>
	<path class="st0" d="M20.8,1.4h19.8c6.7,0,11.8,1.5,15.4,4.4c3.6,2.9,5.4,7.4,5.4,13.5c0,5.9-1.7,10.5-5,13.8
		C53,36.3,48,38,41.5,38H32v16.6H20.8V1.4z M40.6,28.2c3.1,0,5.4-0.8,7-2.3c1.5-1.5,2.3-3.7,2.3-6.5c0-5.6-3.2-8.4-9.5-8.4H32v17.2
		H40.6z"/>
	<path class="st0" d="M116.3,44.9l-2.7,9.7h-4.9c-2.2,0-3.8-0.4-5-1.1c-1.2-0.7-2.5-2-3.9-3.9l-8-11.4c-0.5-0.7-1.1-1.2-1.6-1.5
		s-1.3-0.4-2.2-0.4h-5.2v18.3H71.7V1.4h21.4c6.5,0,11.4,1.4,14.7,4.1c3.4,2.7,5,7,5,13c0,3.4-0.9,6.6-2.7,9.6
		c-1.8,3-4.4,5.1-7.9,6.3l6.1,8.8c0.5,0.7,1,1.2,1.7,1.5c0.6,0.2,1.7,0.4,3.1,0.4H116.3z M92.4,26.6c6.1,0,9.2-2.7,9.2-8
		c0-2.7-0.8-4.7-2.4-5.9c-1.6-1.2-3.9-1.8-7-1.8h-9.4v15.6H92.4z"/>
	<path class="st0" d="M125.4,1.4h37.3l-2.7,9.7h-23.5v12.7h20.8l-0.5,9.7h-20.3v11.5h26.2l-2.7,9.7h-34.7V1.4z"/>
	<path class="st0" d="M170.5,52.1l0.8-10.2c2.4,1.2,5.1,2.1,8,2.8c2.9,0.7,5.7,1.1,8.4,1.1c3.2,0,5.5-0.6,7-1.7
		c1.5-1.2,2.2-2.7,2.2-4.6c0-1.3-0.3-2.3-1-3.1c-0.7-0.8-1.7-1.4-3.1-2s-4-1.5-7.5-2.7c-5-1.6-8.6-3.7-10.8-6.1
		c-2.2-2.5-3.3-5.8-3.3-10c0-3,0.9-5.7,2.6-7.9c1.7-2.2,4.1-4,7.2-5.2c3.1-1.2,6.6-1.8,10.6-1.8c2.5,0,5,0.2,7.5,0.5
		c2.5,0.3,4.7,0.7,6.6,1.3l-0.4,9.8c-4.9-1.4-9.3-2-13.2-2c-3.1,0-5.4,0.4-7,1.3c-1.5,0.9-2.3,2.1-2.3,3.6c0,1.2,0.3,2.2,0.9,3
		c0.6,0.8,1.7,1.6,3.2,2.3c1.5,0.7,3.7,1.5,6.6,2.4c3.7,1.2,6.6,2.4,8.7,3.7c2.1,1.3,3.7,2.9,4.8,4.8c1,1.9,1.5,4.3,1.5,7.1
		c0,3.5-0.9,6.6-2.6,9.1c-1.7,2.6-4.1,4.6-7.1,5.9c-3,1.4-6.5,2.1-10.5,2.1C182,55.4,176,54.3,170.5,52.1z"/>
	<path class="st0" d="M229.6,51.8c-4.3-2.4-7.5-5.6-9.6-9.7c-2.1-4.1-3.2-8.7-3.2-13.9c0-5.4,1.2-10.2,3.5-14.4
		c2.4-4.2,5.7-7.5,10-9.8c4.3-2.3,9.3-3.5,15-3.5c5.8,0,10.6,0.7,14.6,2.2l-0.9,9.8c-1.6-0.6-3.6-1.2-5.9-1.6
		c-2.4-0.4-4.8-0.6-7.1-0.6c-3.4,0-6.4,0.7-9.1,2c-2.7,1.4-4.8,3.4-6.3,6c-1.5,2.7-2.3,5.8-2.3,9.4c0,5.5,1.6,9.8,4.7,13
		c3.1,3.2,7.5,4.8,13.1,4.8c2.3,0,4.6-0.2,6.9-0.6c2.4-0.4,4.4-0.8,6.2-1.4l0.9,9.4c-1.8,0.7-4,1.2-6.6,1.7c-2.6,0.4-5.3,0.6-8,0.6
		C239.2,55.4,233.9,54.2,229.6,51.8z"/>
	<path class="st0" d="M325.8,1.4H337v53.2h-11.2V1.4z"/>
	<path class="st0" d="M314.5,44.9l-2.7,9.7H307c-2.2,0-3.8-0.4-5-1.1c-1.2-0.7-2.5-2-3.9-3.9l-8-11.4c-0.5-0.7-1.1-1.2-1.6-1.5
		s-1.3-0.4-2.2-0.4h-5.2v18.3H270V1.4h21.4c6.5,0,11.4,1.4,14.7,4.1c3.4,2.7,5,7,5,13c0,3.4-0.9,6.6-2.7,9.6s-4.4,5.1-7.9,6.3
		l6.1,8.8c0.5,0.7,1,1.2,1.7,1.5c0.6,0.2,1.7,0.4,3.1,0.4H314.5z M290.7,26.6c6.1,0,9.2-2.7,9.2-8c0-2.7-0.8-4.7-2.4-5.9
		c-1.6-1.2-3.9-1.8-7-1.8h-9.4v15.6H290.7z"/>
	<path class="st0" d="M349.1,1.4h19.8c6.7,0,11.8,1.5,15.4,4.4c3.6,2.9,5.4,7.4,5.4,13.5c0,5.9-1.7,10.5-5,13.8
		c-3.4,3.3-8.3,4.9-14.9,4.9h-9.5v16.6h-11.2V1.4z M368.9,28.2c3.1,0,5.4-0.8,7-2.3c1.5-1.5,2.3-3.7,2.3-6.5c0-5.6-3.2-8.4-9.5-8.4
		h-8.4v17.2H368.9z"/>
	<path class="st0" d="M411,51.8c-4.3-2.4-7.5-5.6-9.6-9.7c-2.1-4.1-3.2-8.7-3.2-13.9c0-5.4,1.2-10.2,3.5-14.4
		c2.4-4.2,5.7-7.5,10-9.8c4.3-2.3,9.3-3.5,15-3.5c5.8,0,10.6,0.7,14.6,2.2l-0.9,9.8c-1.6-0.6-3.6-1.2-5.9-1.6
		c-2.4-0.4-4.8-0.6-7.1-0.6c-3.4,0-6.4,0.7-9.1,2c-2.7,1.4-4.8,3.4-6.3,6c-1.5,2.7-2.3,5.8-2.3,9.4c0,5.5,1.6,9.8,4.7,13
		c3.1,3.2,7.5,4.8,13.1,4.8c2.3,0,4.6-0.2,6.9-0.6c2.4-0.4,4.4-0.8,6.2-1.4l0.9,9.4c-1.8,0.7-4,1.2-6.6,1.7c-2.6,0.4-5.3,0.6-8,0.6
		C420.7,55.4,415.4,54.2,411,51.8z"/>
	<path class="st0" d="M452.5,1.4h11.2v53.2h-11.2V1.4z"/>
	<path class="st0" d="M488.2,52c-4.1-2.2-7.4-5.4-9.9-9.6c-2.4-4.1-3.7-9-3.7-14.5c0-5.5,1.2-10.3,3.7-14.5c2.4-4.1,5.7-7.3,9.9-9.6
		c4.1-2.2,8.7-3.3,13.7-3.3c5,0,9.6,1.1,13.7,3.3c4.1,2.2,7.4,5.4,9.8,9.5c2.4,4.1,3.6,9,3.6,14.5c0,5.5-1.2,10.3-3.6,14.5
		c-2.4,4.1-5.7,7.3-9.8,9.6c-4.1,2.2-8.7,3.3-13.7,3.3C496.9,55.4,492.4,54.3,488.2,52z M510,43.4c2.4-1.5,4.3-3.6,5.6-6.3
		c1.3-2.7,2-5.7,2-9.1c0-3.4-0.7-6.5-2-9.1c-1.3-2.7-3.2-4.8-5.6-6.3c-2.4-1.5-5.1-2.3-8.1-2.3c-3,0-5.7,0.8-8.1,2.3
		c-2.4,1.5-4.2,3.6-5.6,6.3c-1.3,2.7-2,5.7-2,9.1c0,3.4,0.7,6.5,2,9.1c1.3,2.7,3.2,4.8,5.6,6.3c2.4,1.5,5.1,2.3,8.1,2.3
		C504.9,45.7,507.6,44.9,510,43.4z"/>
	<path class="st0" d="M540.1,1.4h8l27.5,33.3V1.4H586v53.2h-7.6l-27.9-34.3v34.3h-10.5V1.4z"/>
	<path class="st0" d="M599.2,1.4h37.3l-2.7,9.7h-23.5v12.7h20.8l-0.5,9.7h-20.3v11.5h26.2l-2.7,9.7h-34.7V1.4z"/>
	<path class="st0" d="M644.3,52.1l0.8-10.2c2.4,1.2,5.1,2.1,8,2.8c2.9,0.7,5.7,1.1,8.4,1.1c3.2,0,5.5-0.6,7-1.7
		c1.5-1.2,2.2-2.7,2.2-4.6c0-1.3-0.3-2.3-1-3.1c-0.7-0.8-1.7-1.4-3.1-2s-4-1.5-7.5-2.7c-5-1.6-8.6-3.7-10.8-6.1
		c-2.2-2.5-3.3-5.8-3.3-10c0-3,0.9-5.7,2.6-7.9c1.7-2.2,4.1-4,7.2-5.2c3.1-1.2,6.6-1.8,10.6-1.8c2.5,0,5,0.2,7.5,0.5
		c2.5,0.3,4.7,0.7,6.6,1.3l-0.4,9.8c-4.9-1.4-9.3-2-13.2-2c-3.1,0-5.4,0.4-7,1.3c-1.5,0.9-2.3,2.1-2.3,3.6c0,1.2,0.3,2.2,0.9,3
		c0.6,0.8,1.7,1.6,3.2,2.3c1.5,0.7,3.7,1.5,6.6,2.4c3.7,1.2,6.6,2.4,8.7,3.7c2.1,1.3,3.7,2.9,4.8,4.8c1,1.9,1.5,4.3,1.5,7.1
		c0,3.5-0.9,6.6-2.6,9.1c-1.7,2.6-4.1,4.6-7.1,5.9c-3,1.4-6.5,2.1-10.5,2.1C655.8,55.4,649.9,54.3,644.3,52.1z"/>
</g>
<g>
	<path class="st0" d="M32.1,132.1c-4.1-2.2-7.4-5.4-9.9-9.6c-2.4-4.1-3.7-9-3.7-14.5c0-5.5,1.2-10.3,3.7-14.5
		c2.4-4.1,5.7-7.3,9.9-9.6c4.1-2.2,8.7-3.3,13.7-3.3c5,0,9.6,1.1,13.7,3.3c4.1,2.2,7.4,5.4,9.8,9.5c2.4,4.1,3.6,9,3.6,14.5
		c0,5.5-1.2,10.3-3.6,14.5c-2.4,4.1-5.7,7.3-9.8,9.6c-4.1,2.2-8.7,3.3-13.7,3.3C40.8,135.4,36.3,134.3,32.1,132.1z M53.9,123.5
		c2.4-1.5,4.3-3.6,5.6-6.3c1.3-2.7,2-5.7,2-9.1c0-3.4-0.7-6.5-2-9.1c-1.3-2.7-3.2-4.8-5.6-6.3c-2.4-1.5-5.1-2.3-8.1-2.3
		c-3,0-5.7,0.8-8.1,2.3c-2.4,1.5-4.2,3.6-5.6,6.3c-1.3,2.7-2,5.7-2,9.1c0,3.4,0.7,6.5,2,9.1c1.3,2.7,3.2,4.8,5.6,6.3
		c2.4,1.5,5.1,2.3,8.1,2.3C48.8,125.7,51.5,125,53.9,123.5z"/>
	<path class="st0" d="M81.5,81.4h18.9c5.5,0,10.2,0.6,14,1.8c3.8,1.2,7,3,9.5,5.5c4.3,4.3,6.4,10.5,6.4,18.7
		c0,8.7-2.5,15.4-7.6,20.2c-2.5,2.3-5.5,4.1-9.1,5.2c-3.6,1.2-7.6,1.8-12.1,1.8h-20V81.4z M101.6,125c3.1,0,5.6-0.4,7.6-1.1
		c2-0.7,3.7-1.9,5.2-3.5c1.4-1.5,2.5-3.3,3.2-5.5c0.7-2.2,1.1-4.6,1.1-7.3c0-3-0.3-5.4-0.9-7.4c-0.6-1.9-1.5-3.5-2.8-4.8
		c-1.5-1.6-3.3-2.7-5.4-3.3s-4.7-1-7.7-1h-9.4V125H101.6z"/>
	<path class="st0" d="M150.1,132.1c-4.1-2.2-7.4-5.4-9.9-9.6c-2.4-4.1-3.7-9-3.7-14.5c0-5.5,1.2-10.3,3.7-14.5
		c2.4-4.1,5.7-7.3,9.9-9.6c4.1-2.2,8.7-3.3,13.7-3.3c5,0,9.6,1.1,13.7,3.3c4.1,2.2,7.4,5.4,9.8,9.5c2.4,4.1,3.6,9,3.6,14.5
		c0,5.5-1.2,10.3-3.6,14.5c-2.4,4.1-5.7,7.3-9.8,9.6c-4.1,2.2-8.7,3.3-13.7,3.3C158.8,135.4,154.3,134.3,150.1,132.1z M171.9,123.5
		c2.4-1.5,4.3-3.6,5.6-6.3c1.3-2.7,2-5.7,2-9.1c0-3.4-0.7-6.5-2-9.1c-1.3-2.7-3.2-4.8-5.6-6.3c-2.4-1.5-5.1-2.3-8.1-2.3
		c-3,0-5.7,0.8-8.1,2.3c-2.4,1.5-4.2,3.6-5.6,6.3c-1.3,2.7-2,5.7-2,9.1c0,3.4,0.7,6.5,2,9.1c1.3,2.7,3.2,4.8,5.6,6.3
		c2.4,1.5,5.1,2.3,8.1,2.3C166.8,125.7,169.5,125,171.9,123.5z"/>
	<path class="st0" d="M199.5,81.4h8l27.5,33.3V81.4h10.5v53.2h-7.6L210,100.4v34.3h-10.5V81.4z"/>
	<path class="st0" d="M268.5,91.1h-16.6v-9.7h45.8l-2.7,9.7h-15.2v43.5h-11.3V91.1z"/>
	<path class="st0" d="M312.1,132.1c-4.1-2.2-7.4-5.4-9.9-9.6c-2.4-4.1-3.7-9-3.7-14.5c0-5.5,1.2-10.3,3.7-14.5
		c2.4-4.1,5.7-7.3,9.9-9.6c4.1-2.2,8.7-3.3,13.7-3.3c5,0,9.6,1.1,13.7,3.3c4.1,2.2,7.4,5.4,9.8,9.5c2.4,4.1,3.6,9,3.6,14.5
		c0,5.5-1.2,10.3-3.6,14.5c-2.4,4.1-5.7,7.3-9.8,9.6c-4.1,2.2-8.7,3.3-13.7,3.3C320.8,135.4,316.2,134.3,312.1,132.1z M333.9,123.5
		c2.4-1.5,4.3-3.6,5.6-6.3c1.3-2.7,2-5.7,2-9.1c0-3.4-0.7-6.5-2-9.1c-1.3-2.7-3.2-4.8-5.6-6.3c-2.4-1.5-5.1-2.3-8.1-2.3
		c-3,0-5.7,0.8-8.1,2.3c-2.4,1.5-4.2,3.6-5.6,6.3c-1.3,2.7-2,5.7-2,9.1c0,3.4,0.7,6.5,2,9.1c1.3,2.7,3.2,4.8,5.6,6.3
		c2.4,1.5,5.1,2.3,8.1,2.3C328.8,125.7,331.5,125,333.9,123.5z"/>
	<path class="st0" d="M363.9,131.8c-1.7-1.9-2.6-4.7-2.6-8.5v-42h11.2v38.4c0,2,0.4,3.3,1.1,4.1c0.7,0.7,2.1,1.1,4.1,1.1h18.7
		l-2.7,9.7H372C368.3,134.6,365.6,133.7,363.9,131.8z"/>
	<path class="st0" d="M412,132.1c-4.1-2.2-7.4-5.4-9.9-9.6c-2.4-4.1-3.7-9-3.7-14.5c0-5.5,1.2-10.3,3.7-14.5
		c2.4-4.1,5.7-7.3,9.9-9.6c4.1-2.2,8.7-3.3,13.7-3.3c5,0,9.6,1.1,13.7,3.3c4.1,2.2,7.4,5.4,9.8,9.5c2.4,4.1,3.6,9,3.6,14.5
		c0,5.5-1.2,10.3-3.6,14.5c-2.4,4.1-5.7,7.3-9.8,9.6c-4.1,2.2-8.7,3.3-13.7,3.3C420.7,135.4,416.1,134.3,412,132.1z M433.8,123.5
		c2.4-1.5,4.3-3.6,5.6-6.3c1.3-2.7,2-5.7,2-9.1c0-3.4-0.7-6.5-2-9.1c-1.3-2.7-3.2-4.8-5.6-6.3c-2.4-1.5-5.1-2.3-8.1-2.3
		c-3,0-5.7,0.8-8.1,2.3c-2.4,1.5-4.2,3.6-5.6,6.3c-1.3,2.7-2,5.7-2,9.1c0,3.4,0.7,6.5,2,9.1c1.3,2.7,3.2,4.8,5.6,6.3
		c2.4,1.5,5.1,2.3,8.1,2.3C428.7,125.7,431.4,125,433.8,123.5z M416.8,70.4l16.2-9.8l4.7,8.3L420.3,77L416.8,70.4z"/>
	<path class="st0" d="M472.5,131.9c-4.3-2.3-7.6-5.5-9.8-9.6c-2.3-4.1-3.4-8.8-3.4-14.1c0-5.4,1.2-10.1,3.7-14.3
		c2.5-4.2,6-7.4,10.5-9.8c4.6-2.3,9.9-3.5,16-3.5c6.4,0,11.8,0.8,16.1,2.4l-0.9,9.8c-2-0.7-4.3-1.2-6.9-1.7c-2.6-0.4-5.3-0.7-8-0.7
		c-3.7,0-7,0.7-9.9,2.1c-2.9,1.4-5.1,3.4-6.7,6.1c-1.6,2.7-2.4,5.9-2.4,9.5c0,3.6,0.8,6.8,2.3,9.4s3.6,4.7,6.4,6.1s5.9,2.1,9.4,2.1
		c2.9,0,5.5-0.3,7.7-1v-15.4l11.2-2.9V131c-2.4,1.4-5.4,2.4-8.9,3.2s-7.2,1.2-11.1,1.2C481.9,135.4,476.8,134.3,472.5,131.9z"/>
	<path class="st0" d="M517.5,81.4h11.2v53.2h-11.2V81.4z"/>
	<path class="st0" d="M550,131.8c-4.3-2.4-7.5-5.6-9.6-9.7c-2.1-4.1-3.2-8.7-3.2-13.9c0-5.4,1.2-10.2,3.5-14.4
		c2.4-4.2,5.7-7.5,10-9.8c4.3-2.3,9.3-3.5,15-3.5c5.8,0,10.6,0.7,14.6,2.2l-0.9,9.8c-1.6-0.6-3.6-1.2-5.9-1.6
		c-2.4-0.4-4.8-0.6-7.1-0.6c-3.4,0-6.4,0.7-9.1,2c-2.7,1.4-4.8,3.4-6.3,6c-1.5,2.7-2.3,5.8-2.3,9.4c0,5.5,1.6,9.8,4.7,13
		c3.1,3.2,7.5,4.8,13.1,4.8c2.3,0,4.6-0.2,6.9-0.6c2.4-0.4,4.4-0.8,6.2-1.4l0.9,9.4c-1.8,0.7-4,1.2-6.6,1.7c-2.6,0.4-5.3,0.6-8,0.6
		C559.6,135.4,554.3,134.2,550,131.8z"/>
	<path class="st0" d="M607.2,81.3h10.2l21.3,53.3h-12l-3.9-10.5h-21.2l-4,10.5h-12.4L607.2,81.3z M619.2,114.5l-6.6-17.9h-0.7
		l-6.6,17.9H619.2z"/>
	<path class="st0" d="M643.3,132.2l0.8-10.2c2.4,1.2,5.1,2.1,8,2.8c2.9,0.7,5.7,1.1,8.4,1.1c3.2,0,5.5-0.6,7-1.7
		c1.5-1.2,2.2-2.7,2.2-4.6c0-1.3-0.3-2.3-1-3.1c-0.7-0.8-1.7-1.4-3.1-2s-4-1.5-7.5-2.7c-5-1.6-8.6-3.7-10.8-6.1
		c-2.2-2.5-3.3-5.8-3.3-10c0-3,0.9-5.7,2.6-7.9c1.7-2.2,4.1-4,7.2-5.2c3.1-1.2,6.6-1.8,10.6-1.8c2.5,0,5,0.2,7.5,0.5
		c2.5,0.3,4.7,0.7,6.6,1.3l-0.4,9.8c-4.9-1.4-9.3-2-13.2-2c-3.1,0-5.4,0.4-7,1.3c-1.5,0.9-2.3,2.1-2.3,3.6c0,1.2,0.3,2.2,0.9,3
		c0.6,0.8,1.7,1.6,3.2,2.3c1.5,0.7,3.7,1.5,6.6,2.4c3.7,1.2,6.6,2.4,8.7,3.7c2.1,1.3,3.7,2.9,4.8,4.8c1,1.9,1.5,4.3,1.5,7.1
		c0,3.5-0.9,6.6-2.6,9.1c-1.7,2.6-4.1,4.6-7.1,5.9c-3,1.4-6.5,2.1-10.5,2.1C654.8,135.4,648.8,134.4,643.3,132.2z"/>
</g>
<g>
	<rect x="0" y="158" class="st1" width="700" height="5"/>
</g>
</svg>
